PathFileType	4	(X/Y/Z)	jw_ngait_og1.trc	
DataRate	CameraRate	NumFrames	NumMarkers	Units	OrigDataRate	OrigDataStartFrame	OrigNumFrames	
120.00	120.00	4	56	mm	120.00	115	327	
Frame#	Time	Sternum			Neck			RShoulder			LShoulder			Xiphoid			Thoracic			RAsis			LAsis			RPsis			LPsis			Lumbar			RElbow			RWrist			RRadius			RUlna			LElbow			LWrist			LUlna			LRadius			LThighSuperior			LThighInferior			LThighLateral			LPatella			LShankSuperior			LShankInferior			LShankLateral			RThighSuperior			RThighInferior			RThighLateral			RPatella			RShankSuperior			RShankInferior			RShankLateral			RHeel			RToe			RMidfootMedial			RMidfootLateral			RHindfoot			RMidfootSuperior			RToeMedial			RToeLateral			LHeel			LToe			LMidfootMedial			LMidfootLateral			LHindfoot			LMidfootSuperior			LToeMedial			LToeLateral			LShoulderCenter			Oglobal			RShoulderCenter			Sacral			Xglobal			Yglobal			Zglobal			
		X1	Y1	Z1	X2	Y2	Z2	X3	Y3	Z3	X4	Y4	Z4	X5	Y5	Z5	X6	Y6	Z6	X7	Y7	Z7	X8	Y8	Z8	X9	Y9	Z9	X10	Y10	Z10	X11	Y11	Z11	X12	Y12	Z12	X13	Y13	Z13	X14	Y14	Z14	X15	Y15	Z15	X16	Y16	Z16	X17	Y17	Z17	X18	Y18	Z18	X19	Y19	Z19	X20	Y20	Z20	X21	Y21	Z21	X22	Y22	Z22	X23	Y23	Z23	X24	Y24	Z24	X25	Y25	Z25	X26	Y26	Z26	X27	Y27	Z27	X28	Y28	Z28	X29	Y29	Z29	X30	Y30	Z30	X31	Y31	Z31	X32	Y32	Z32	X33	Y33	Z33	X34	Y34	Z34	X35	Y35	Z35	X36	Y36	Z36	X37	Y37	Z37	X38	Y38	Z38	X39	Y39	Z39	X40	Y40	Z40	X41	Y41	Z41	X42	Y42	Z42	X43	Y43	Z43	X44	Y44	Z44	X45	Y45	Z45	X46	Y46	Z46	X47	Y47	Z47	X48	Y48	Z48	X49	Y49	Z49	X50	Y50	Z50	X51	Y51	Z51	X52	Y52	Z52	X53	Y53	Z53	X54	Y54	Z54	X55	Y55	Z55	X56	Y56	Z56	

1	0.000	1663.93701	182.26393	1340.05066	1793.19226	191.52536	1461.47534	1725.89160	363.27945	1400.99915	1750.98071	0.31121	1404.35583	1676.31702	176.73732	1223.76599	1897.32825	181.02550	1276.83960	1706.91919	312.20813	998.18439	1720.70300	39.52556	987.75220	1928.28577	202.13072	992.85364	1927.40283	141.75496	989.89227	1917.86646	176.98438	1060.58923	1796.26440	459.41467	1076.28796	1718.68457	453.41437	821.29688	1702.79993	417.13531	826.83374	1767.88818	453.86038	821.94446	1835.42822	-66.93710	1082.77454	1773.11377	-69.00881	816.37048	1823.68530	-59.96655	814.56927	1757.82593	-37.65964	838.69537	1718.92078	-9.48424	827.69165	1588.74719	23.65310	615.72504	1587.81140	45.85470	744.78088	1517.24304	69.66852	547.87091	1589.42334	27.62260	467.82516	1617.33118	53.76591	210.22670	1566.07605	94.84886	335.09900	1784.41772	343.44650	806.16949	1797.54773	291.50650	568.70264	1737.98486	272.74521	655.18011	1777.77417	243.15961	501.83807	1898.37537	303.92764	395.00482	1909.56580	256.17566	161.34450	1856.66504	218.55238	256.17776	2011.45093	209.73380	55.84462	1717.49561	268.64087	38.34843	1791.28210	199.22139	30.29052	1824.87659	308.91876	36.56687	1905.71851	294.74051	22.23651	1837.49756	240.90520	104.04204	1750.33374	218.99501	31.35764	1764.98389	305.37357	37.09295	1701.73035	98.87429	70.97194	1409.45203	51.21934	107.06237	1486.95483	122.78448	78.72285	1513.37134	0.97537	78.79739	1608.76917	24.86770	52.82321	1542.60205	71.24143	150.59671	1442.98499	95.17361	92.45968	1462.86462	10.22780	90.64931	1777.85498	14.27070	1362.44812	0.00000	0.00000	0.00000	1751.75635	365.30484	1359.87378	1927.84424	171.94284	991.37292	200.00000	0.00000	0.00000	0.00000	200.00000	0.00000	0.00000	0.00000	200.00000 
2	0.008	1652.92090	182.14186	1338.53638	1782.11633	191.22313	1460.19617	1714.79419	363.03241	1399.83765	1740.17322	0.10891	1402.97449	1665.20374	177.01912	1222.49353	1886.59839	180.78380	1275.83386	1700.37817	309.44073	996.45795	1710.45215	39.50374	986.28308	1918.07288	201.72061	991.74292	1917.28967	141.51080	988.93713	1909.33826	172.91278	1059.38074	1784.98108	459.80869	1075.20630	1706.74048	453.54565	820.36993	1690.85474	416.90997	825.96112	1755.84070	453.97092	821.01306	1826.02966	-67.21602	1081.53235	1767.63147	-69.17410	814.83972	1818.19995	-60.19572	813.66687	1751.29419	-37.15678	836.92218	1708.62671	-9.85511	826.13885	1580.78503	24.46955	613.73328	1578.98145	44.41141	742.88458	1509.25854	69.63381	547.30762	1576.65137	27.75796	464.91406	1589.17212	53.54288	206.06105	1545.62854	95.71849	333.71722	1775.56641	343.19153	805.28986	1791.69727	291.43109	567.89246	1731.19067	271.88840	653.71283	1772.89709	242.79335	500.74979	1894.77600	303.62723	395.41122	1908.65710	256.25186	161.43333	1854.11377	217.75136	255.33632	2011.13159	209.43605	56.62382	1717.43127	268.68271	38.03877	1791.09131	199.15419	29.89594	1824.76562	308.81613	36.35989	1905.68799	294.67322	22.33839	1836.99500	240.77759	103.88548	1750.03894	219.09761	31.11028	1764.93115	305.70682	36.90762	1664.76953	98.86639	61.90151	1375.30750	52.59040	114.79004	1450.97253	123.78131	82.64774	1476.63245	1.84661	79.68203	1570.18713	25.02180	47.95636	1510.66382	71.09771	150.35938	1407.93604	96.30991	98.77726	1426.71155	11.23701	94.30105	1766.94897	14.22605	1360.95398	0.00000	0.00000	0.00000	1740.56738	365.24051	1358.58984	1917.68127	171.61571	990.34003	200.00000	0.00000	0.00000	0.00000	200.00000	0.00000	0.00000	0.00000	200.00000 
3	0.017	1641.72656	182.06705	1336.80884	1770.97424	190.95903	1458.82361	1703.71973	362.86386	1398.26050	1729.14099	-0.23366	1401.36462	1654.63013	176.85738	1220.78333	1875.79785	180.34926	1274.68103	1690.06189	309.47345	995.19232	1700.16699	39.17994	984.77118	1907.59094	201.21600	990.40765	1907.04150	141.09183	987.75507	1898.99109	172.71481	1058.12976	1773.67297	460.06564	1073.95886	1694.80701	453.62436	819.46875	1679.02649	417.09485	825.15009	1742.85217	452.81592	819.16235	1816.87244	-67.38556	1080.47388	1761.89209	-69.00425	813.07147	1812.70642	-60.38788	812.61542	1744.90381	-36.83999	835.35266	1698.86743	-10.75561	824.38409	1573.46826	25.20799	610.62128	1570.42725	42.91237	740.29211	1501.59058	69.66268	546.47180	1563.42957	28.40563	461.93851	1561.19434	53.43190	202.89700	1525.82959	96.48205	332.65472	1766.66736	342.93149	804.43243	1785.60303	291.20743	567.00977	1724.33911	271.89337	652.47607	1767.68677	242.65836	499.55814	1890.94348	303.22552	395.77802	1907.82373	256.31512	161.60759	1851.65698	218.07268	255.34412	2010.80737	209.15971	57.37074	1717.36450	268.80038	37.76410	1790.90320	199.20459	29.42613	1824.70288	308.81622	36.08719	1905.65100	294.57632	22.50479	1836.45850	240.75343	103.67248	1749.93372	219.14282	30.94086	1764.85913	305.96194	36.81518	1628.31262	99.00247	54.12584	1342.21753	53.50719	122.94344	1416.27844	124.90388	87.75481	1440.85010	2.87630	81.36736	1531.72754	25.36643	44.52021	1478.97742	70.67368	151.32068	1374.14490	97.59798	105.78545	1391.95630	11.55324	99.39393	1755.74146	14.15776	1359.34229	0.00000	0.00000	0.00000	1729.33008	365.17020	1357.00891	1907.31616	171.15392	989.08136	200.00000	0.00000	0.00000	0.00000	200.00000	0.00000	0.00000	0.00000	200.00000 
4	0.025	1630.67517	181.85239	1335.23706	1759.95496	190.68864	1457.62012	1692.82288	362.53101	1396.79236	1717.99707	-0.55108	1399.76697	1644.37061	176.53763	1218.83069	1864.99658	179.77823	1273.45337	1678.96106	309.87000	993.53839	1689.49780	39.05966	983.17932	1896.95215	200.63081	988.92053	1896.58240	140.43465	986.35486	1888.03735	173.17291	1056.71887	1762.48999	460.29843	1072.62268	1682.91394	453.71414	818.43774	1667.17456	416.98660	824.27661	1730.76941	452.72525	817.87854	1807.60217	-67.45248	1079.34583	1756.08765	-69.07558	811.41821	1806.99963	-60.53688	811.44873	1738.27612	-36.34005	833.71484	1690.09412	-12.00477	821.65649	1563.04871	26.98840	608.23175	1561.95508	41.50490	736.98486	1494.18201	70.20011	545.09320	1551.08411	28.87394	459.32571	1533.84009	53.08063	200.65088	1506.42285	96.95839	331.92661	1757.57922	342.50946	803.40234	1779.29102	290.85037	566.02460	1716.99402	270.99136	651.12103	1762.46729	242.83943	498.38016	1886.89136	302.83609	396.15723	1906.19250	255.92348	162.45531	1848.78552	218.17670	255.42191	2010.48865	209.00880	58.32114	1717.20789	268.74213	37.27199	1790.75830	199.16678	29.00360	1824.58154	308.76254	35.80389	1905.65588	294.46970	22.71286	1835.82507	240.74635	103.51886	1749.82068	219.06917	30.66902	1764.84326	306.04520	36.64754	1592.21936	98.73880	48.51266	1309.93079	54.00545	131.88017	1382.70886	126.19165	94.46880	1405.48694	4.06022	84.45050	1494.47449	26.12559	42.65546	1448.85205	70.22736	152.95251	1342.83618	100.33151	115.67271	1359.30884	11.87638	105.24282	1744.54785	13.85741	1357.85083	0.00000	0.00000	0.00000	1718.37207	364.88828	1355.63977	1896.76733	170.53273	987.63770	200.00000	0.00000	0.00000	0.00000	200.00000	0.00000	0.00000	0.00000	200.00000 
